<mxfile host="Electron" modified="2024-06-04T05:23:34.723Z" agent="Mozilla/5.0 (Windows NT 10.0; Win64; x64) AppleWebKit/537.36 (KHTML, like Gecko) draw.io/24.1.0 Chrome/120.0.6099.109 Electron/28.1.0 Safari/537.36" etag="sU-ufw7aUVHVobRS59WR" version="24.1.0" type="device">
  <diagram name="Страница — 1" id="nNfx-vV1hShtOd783kGf">
    <mxGraphModel dx="1746" dy="991" grid="0" gridSize="10" guides="1" tooltips="1" connect="1" arrows="1" fold="1" page="0" pageScale="1" pageWidth="827" pageHeight="1169" math="0" shadow="0">
      <root>
        <mxCell id="0" />
        <mxCell id="1" parent="0" />
        <mxCell id="SkcSY4S7GJKtiJHQgHpd-27" value="User" style="shape=table;startSize=30;container=1;collapsible=0;childLayout=tableLayout;strokeColor=default;fontSize=11;strokeWidth=1;" parent="1" vertex="1">
          <mxGeometry x="450" y="30" width="250" height="180" as="geometry" />
        </mxCell>
        <mxCell id="SkcSY4S7GJKtiJHQgHpd-28" value="" style="shape=tableRow;horizontal=0;startSize=0;swimlaneHead=0;swimlaneBody=0;strokeColor=inherit;top=0;left=0;bottom=0;right=0;collapsible=0;dropTarget=0;fillColor=none;points=[[0,0.5],[1,0.5]];portConstraint=eastwest;fontSize=11;strokeWidth=1;" parent="SkcSY4S7GJKtiJHQgHpd-27" vertex="1">
          <mxGeometry y="30" width="250" height="50" as="geometry" />
        </mxCell>
        <mxCell id="SkcSY4S7GJKtiJHQgHpd-29" value="&lt;font style=&quot;font-size: 11px;&quot;&gt;User_id&lt;/font&gt;" style="shape=partialRectangle;html=1;whiteSpace=wrap;connectable=0;strokeColor=inherit;overflow=hidden;fillColor=none;top=0;left=0;bottom=0;right=0;pointerEvents=1;fontSize=11;strokeWidth=1;" parent="SkcSY4S7GJKtiJHQgHpd-28" vertex="1">
          <mxGeometry width="100" height="50" as="geometry">
            <mxRectangle width="100" height="50" as="alternateBounds" />
          </mxGeometry>
        </mxCell>
        <mxCell id="SkcSY4S7GJKtiJHQgHpd-30" value="Pk" style="shape=partialRectangle;html=1;whiteSpace=wrap;connectable=0;strokeColor=inherit;overflow=hidden;fillColor=none;top=0;left=0;bottom=0;right=0;pointerEvents=1;fontSize=11;strokeWidth=1;" parent="SkcSY4S7GJKtiJHQgHpd-28" vertex="1">
          <mxGeometry x="100" width="70" height="50" as="geometry">
            <mxRectangle width="70" height="50" as="alternateBounds" />
          </mxGeometry>
        </mxCell>
        <mxCell id="SkcSY4S7GJKtiJHQgHpd-31" value="INT" style="shape=partialRectangle;html=1;whiteSpace=wrap;connectable=0;strokeColor=inherit;overflow=hidden;fillColor=none;top=0;left=0;bottom=0;right=0;pointerEvents=1;fontSize=11;strokeWidth=1;" parent="SkcSY4S7GJKtiJHQgHpd-28" vertex="1">
          <mxGeometry x="170" width="80" height="50" as="geometry">
            <mxRectangle width="80" height="50" as="alternateBounds" />
          </mxGeometry>
        </mxCell>
        <mxCell id="SkcSY4S7GJKtiJHQgHpd-32" value="" style="shape=tableRow;horizontal=0;startSize=0;swimlaneHead=0;swimlaneBody=0;strokeColor=inherit;top=0;left=0;bottom=0;right=0;collapsible=0;dropTarget=0;fillColor=none;points=[[0,0.5],[1,0.5]];portConstraint=eastwest;fontSize=11;strokeWidth=1;" parent="SkcSY4S7GJKtiJHQgHpd-27" vertex="1">
          <mxGeometry y="80" width="250" height="50" as="geometry" />
        </mxCell>
        <mxCell id="SkcSY4S7GJKtiJHQgHpd-33" value="username" style="shape=partialRectangle;html=1;whiteSpace=wrap;connectable=0;strokeColor=inherit;overflow=hidden;fillColor=none;top=0;left=0;bottom=0;right=0;pointerEvents=1;fontSize=11;strokeWidth=1;" parent="SkcSY4S7GJKtiJHQgHpd-32" vertex="1">
          <mxGeometry width="100" height="50" as="geometry">
            <mxRectangle width="100" height="50" as="alternateBounds" />
          </mxGeometry>
        </mxCell>
        <mxCell id="SkcSY4S7GJKtiJHQgHpd-34" value="" style="shape=partialRectangle;html=1;whiteSpace=wrap;connectable=0;strokeColor=inherit;overflow=hidden;fillColor=none;top=0;left=0;bottom=0;right=0;pointerEvents=1;fontSize=11;strokeWidth=1;" parent="SkcSY4S7GJKtiJHQgHpd-32" vertex="1">
          <mxGeometry x="100" width="70" height="50" as="geometry">
            <mxRectangle width="70" height="50" as="alternateBounds" />
          </mxGeometry>
        </mxCell>
        <mxCell id="SkcSY4S7GJKtiJHQgHpd-35" value="CHAR(45)" style="shape=partialRectangle;html=1;whiteSpace=wrap;connectable=0;strokeColor=inherit;overflow=hidden;fillColor=none;top=0;left=0;bottom=0;right=0;pointerEvents=1;fontSize=11;strokeWidth=1;" parent="SkcSY4S7GJKtiJHQgHpd-32" vertex="1">
          <mxGeometry x="170" width="80" height="50" as="geometry">
            <mxRectangle width="80" height="50" as="alternateBounds" />
          </mxGeometry>
        </mxCell>
        <mxCell id="SkcSY4S7GJKtiJHQgHpd-36" value="" style="shape=tableRow;horizontal=0;startSize=0;swimlaneHead=0;swimlaneBody=0;strokeColor=inherit;top=0;left=0;bottom=0;right=0;collapsible=0;dropTarget=0;fillColor=none;points=[[0,0.5],[1,0.5]];portConstraint=eastwest;fontSize=11;strokeWidth=1;" parent="SkcSY4S7GJKtiJHQgHpd-27" vertex="1">
          <mxGeometry y="130" width="250" height="50" as="geometry" />
        </mxCell>
        <mxCell id="SkcSY4S7GJKtiJHQgHpd-37" value="password" style="shape=partialRectangle;html=1;whiteSpace=wrap;connectable=0;strokeColor=inherit;overflow=hidden;fillColor=none;top=0;left=0;bottom=0;right=0;pointerEvents=1;fontSize=11;strokeWidth=1;" parent="SkcSY4S7GJKtiJHQgHpd-36" vertex="1">
          <mxGeometry width="100" height="50" as="geometry">
            <mxRectangle width="100" height="50" as="alternateBounds" />
          </mxGeometry>
        </mxCell>
        <mxCell id="SkcSY4S7GJKtiJHQgHpd-38" value="" style="shape=partialRectangle;html=1;whiteSpace=wrap;connectable=0;strokeColor=inherit;overflow=hidden;fillColor=none;top=0;left=0;bottom=0;right=0;pointerEvents=1;fontSize=11;strokeWidth=1;" parent="SkcSY4S7GJKtiJHQgHpd-36" vertex="1">
          <mxGeometry x="100" width="70" height="50" as="geometry">
            <mxRectangle width="70" height="50" as="alternateBounds" />
          </mxGeometry>
        </mxCell>
        <mxCell id="SkcSY4S7GJKtiJHQgHpd-39" value="CHAR(45)" style="shape=partialRectangle;html=1;whiteSpace=wrap;connectable=0;strokeColor=inherit;overflow=hidden;fillColor=none;top=0;left=0;bottom=0;right=0;pointerEvents=1;fontSize=11;strokeWidth=1;" parent="SkcSY4S7GJKtiJHQgHpd-36" vertex="1">
          <mxGeometry x="170" width="80" height="50" as="geometry">
            <mxRectangle width="80" height="50" as="alternateBounds" />
          </mxGeometry>
        </mxCell>
        <mxCell id="SkcSY4S7GJKtiJHQgHpd-105" value="Greenhouse" style="shape=table;startSize=30;container=1;collapsible=0;childLayout=tableLayout;strokeColor=default;fontSize=11;strokeWidth=1;" parent="1" vertex="1">
          <mxGeometry x="770" y="20" width="250" height="430" as="geometry" />
        </mxCell>
        <mxCell id="SkcSY4S7GJKtiJHQgHpd-106" value="" style="shape=tableRow;horizontal=0;startSize=0;swimlaneHead=0;swimlaneBody=0;strokeColor=inherit;top=0;left=0;bottom=0;right=0;collapsible=0;dropTarget=0;fillColor=none;points=[[0,0.5],[1,0.5]];portConstraint=eastwest;fontSize=11;strokeWidth=1;" parent="SkcSY4S7GJKtiJHQgHpd-105" vertex="1">
          <mxGeometry y="30" width="250" height="50" as="geometry" />
        </mxCell>
        <mxCell id="SkcSY4S7GJKtiJHQgHpd-107" value="&lt;font style=&quot;font-size: 11px;&quot;&gt;Greenhouse_id&lt;/font&gt;" style="shape=partialRectangle;html=1;whiteSpace=wrap;connectable=0;strokeColor=inherit;overflow=hidden;fillColor=none;top=0;left=0;bottom=0;right=0;pointerEvents=1;fontSize=11;strokeWidth=1;" parent="SkcSY4S7GJKtiJHQgHpd-106" vertex="1">
          <mxGeometry width="100" height="50" as="geometry">
            <mxRectangle width="100" height="50" as="alternateBounds" />
          </mxGeometry>
        </mxCell>
        <mxCell id="SkcSY4S7GJKtiJHQgHpd-108" value="Pk" style="shape=partialRectangle;html=1;whiteSpace=wrap;connectable=0;strokeColor=inherit;overflow=hidden;fillColor=none;top=0;left=0;bottom=0;right=0;pointerEvents=1;fontSize=11;strokeWidth=1;" parent="SkcSY4S7GJKtiJHQgHpd-106" vertex="1">
          <mxGeometry x="100" width="70" height="50" as="geometry">
            <mxRectangle width="70" height="50" as="alternateBounds" />
          </mxGeometry>
        </mxCell>
        <mxCell id="SkcSY4S7GJKtiJHQgHpd-109" value="INT" style="shape=partialRectangle;html=1;whiteSpace=wrap;connectable=0;strokeColor=inherit;overflow=hidden;fillColor=none;top=0;left=0;bottom=0;right=0;pointerEvents=1;fontSize=11;strokeWidth=1;" parent="SkcSY4S7GJKtiJHQgHpd-106" vertex="1">
          <mxGeometry x="170" width="80" height="50" as="geometry">
            <mxRectangle width="80" height="50" as="alternateBounds" />
          </mxGeometry>
        </mxCell>
        <mxCell id="SkcSY4S7GJKtiJHQgHpd-110" value="" style="shape=tableRow;horizontal=0;startSize=0;swimlaneHead=0;swimlaneBody=0;strokeColor=inherit;top=0;left=0;bottom=0;right=0;collapsible=0;dropTarget=0;fillColor=none;points=[[0,0.5],[1,0.5]];portConstraint=eastwest;fontSize=11;strokeWidth=1;" parent="SkcSY4S7GJKtiJHQgHpd-105" vertex="1">
          <mxGeometry y="80" width="250" height="50" as="geometry" />
        </mxCell>
        <mxCell id="SkcSY4S7GJKtiJHQgHpd-111" value="user" style="shape=partialRectangle;html=1;whiteSpace=wrap;connectable=0;strokeColor=inherit;overflow=hidden;fillColor=none;top=0;left=0;bottom=0;right=0;pointerEvents=1;fontSize=11;strokeWidth=1;" parent="SkcSY4S7GJKtiJHQgHpd-110" vertex="1">
          <mxGeometry width="100" height="50" as="geometry">
            <mxRectangle width="100" height="50" as="alternateBounds" />
          </mxGeometry>
        </mxCell>
        <mxCell id="SkcSY4S7GJKtiJHQgHpd-112" value="Fk" style="shape=partialRectangle;html=1;whiteSpace=wrap;connectable=0;strokeColor=inherit;overflow=hidden;fillColor=none;top=0;left=0;bottom=0;right=0;pointerEvents=1;fontSize=11;strokeWidth=1;" parent="SkcSY4S7GJKtiJHQgHpd-110" vertex="1">
          <mxGeometry x="100" width="70" height="50" as="geometry">
            <mxRectangle width="70" height="50" as="alternateBounds" />
          </mxGeometry>
        </mxCell>
        <mxCell id="SkcSY4S7GJKtiJHQgHpd-113" value="INT" style="shape=partialRectangle;html=1;whiteSpace=wrap;connectable=0;strokeColor=inherit;overflow=hidden;fillColor=none;top=0;left=0;bottom=0;right=0;pointerEvents=1;fontSize=11;strokeWidth=1;" parent="SkcSY4S7GJKtiJHQgHpd-110" vertex="1">
          <mxGeometry x="170" width="80" height="50" as="geometry">
            <mxRectangle width="80" height="50" as="alternateBounds" />
          </mxGeometry>
        </mxCell>
        <mxCell id="SkcSY4S7GJKtiJHQgHpd-114" value="" style="shape=tableRow;horizontal=0;startSize=0;swimlaneHead=0;swimlaneBody=0;strokeColor=inherit;top=0;left=0;bottom=0;right=0;collapsible=0;dropTarget=0;fillColor=none;points=[[0,0.5],[1,0.5]];portConstraint=eastwest;fontSize=11;strokeWidth=1;" parent="SkcSY4S7GJKtiJHQgHpd-105" vertex="1">
          <mxGeometry y="130" width="250" height="50" as="geometry" />
        </mxCell>
        <mxCell id="SkcSY4S7GJKtiJHQgHpd-115" value="imei" style="shape=partialRectangle;html=1;whiteSpace=wrap;connectable=0;strokeColor=inherit;overflow=hidden;fillColor=none;top=0;left=0;bottom=0;right=0;pointerEvents=1;fontSize=11;strokeWidth=1;" parent="SkcSY4S7GJKtiJHQgHpd-114" vertex="1">
          <mxGeometry width="100" height="50" as="geometry">
            <mxRectangle width="100" height="50" as="alternateBounds" />
          </mxGeometry>
        </mxCell>
        <mxCell id="SkcSY4S7GJKtiJHQgHpd-116" value="" style="shape=partialRectangle;html=1;whiteSpace=wrap;connectable=0;strokeColor=inherit;overflow=hidden;fillColor=none;top=0;left=0;bottom=0;right=0;pointerEvents=1;fontSize=11;strokeWidth=1;" parent="SkcSY4S7GJKtiJHQgHpd-114" vertex="1">
          <mxGeometry x="100" width="70" height="50" as="geometry">
            <mxRectangle width="70" height="50" as="alternateBounds" />
          </mxGeometry>
        </mxCell>
        <mxCell id="SkcSY4S7GJKtiJHQgHpd-117" value="CHAR(20)" style="shape=partialRectangle;html=1;whiteSpace=wrap;connectable=0;strokeColor=inherit;overflow=hidden;fillColor=none;top=0;left=0;bottom=0;right=0;pointerEvents=1;fontSize=11;strokeWidth=1;" parent="SkcSY4S7GJKtiJHQgHpd-114" vertex="1">
          <mxGeometry x="170" width="80" height="50" as="geometry">
            <mxRectangle width="80" height="50" as="alternateBounds" />
          </mxGeometry>
        </mxCell>
        <mxCell id="SkcSY4S7GJKtiJHQgHpd-118" value="" style="shape=tableRow;horizontal=0;startSize=0;swimlaneHead=0;swimlaneBody=0;strokeColor=inherit;top=0;left=0;bottom=0;right=0;collapsible=0;dropTarget=0;fillColor=none;points=[[0,0.5],[1,0.5]];portConstraint=eastwest;fontSize=11;strokeWidth=1;" parent="SkcSY4S7GJKtiJHQgHpd-105" vertex="1">
          <mxGeometry y="180" width="250" height="50" as="geometry" />
        </mxCell>
        <mxCell id="SkcSY4S7GJKtiJHQgHpd-119" value="location" style="shape=partialRectangle;html=1;whiteSpace=wrap;connectable=0;strokeColor=inherit;overflow=hidden;fillColor=none;top=0;left=0;bottom=0;right=0;pointerEvents=1;fontSize=11;strokeWidth=1;" parent="SkcSY4S7GJKtiJHQgHpd-118" vertex="1">
          <mxGeometry width="100" height="50" as="geometry">
            <mxRectangle width="100" height="50" as="alternateBounds" />
          </mxGeometry>
        </mxCell>
        <mxCell id="SkcSY4S7GJKtiJHQgHpd-120" value="" style="shape=partialRectangle;html=1;whiteSpace=wrap;connectable=0;strokeColor=inherit;overflow=hidden;fillColor=none;top=0;left=0;bottom=0;right=0;pointerEvents=1;fontSize=11;strokeWidth=1;" parent="SkcSY4S7GJKtiJHQgHpd-118" vertex="1">
          <mxGeometry x="100" width="70" height="50" as="geometry">
            <mxRectangle width="70" height="50" as="alternateBounds" />
          </mxGeometry>
        </mxCell>
        <mxCell id="SkcSY4S7GJKtiJHQgHpd-121" value="CHAR(20)" style="shape=partialRectangle;html=1;whiteSpace=wrap;connectable=0;strokeColor=inherit;overflow=hidden;fillColor=none;top=0;left=0;bottom=0;right=0;pointerEvents=1;fontSize=11;strokeWidth=1;" parent="SkcSY4S7GJKtiJHQgHpd-118" vertex="1">
          <mxGeometry x="170" width="80" height="50" as="geometry">
            <mxRectangle width="80" height="50" as="alternateBounds" />
          </mxGeometry>
        </mxCell>
        <mxCell id="SkcSY4S7GJKtiJHQgHpd-122" value="" style="shape=tableRow;horizontal=0;startSize=0;swimlaneHead=0;swimlaneBody=0;strokeColor=inherit;top=0;left=0;bottom=0;right=0;collapsible=0;dropTarget=0;fillColor=none;points=[[0,0.5],[1,0.5]];portConstraint=eastwest;fontSize=11;strokeWidth=1;" parent="SkcSY4S7GJKtiJHQgHpd-105" vertex="1">
          <mxGeometry y="230" width="250" height="50" as="geometry" />
        </mxCell>
        <mxCell id="SkcSY4S7GJKtiJHQgHpd-123" value="latitude" style="shape=partialRectangle;html=1;whiteSpace=wrap;connectable=0;strokeColor=inherit;overflow=hidden;fillColor=none;top=0;left=0;bottom=0;right=0;pointerEvents=1;fontSize=11;strokeWidth=1;" parent="SkcSY4S7GJKtiJHQgHpd-122" vertex="1">
          <mxGeometry width="100" height="50" as="geometry">
            <mxRectangle width="100" height="50" as="alternateBounds" />
          </mxGeometry>
        </mxCell>
        <mxCell id="SkcSY4S7GJKtiJHQgHpd-124" value="" style="shape=partialRectangle;html=1;whiteSpace=wrap;connectable=0;strokeColor=inherit;overflow=hidden;fillColor=none;top=0;left=0;bottom=0;right=0;pointerEvents=1;fontSize=11;strokeWidth=1;" parent="SkcSY4S7GJKtiJHQgHpd-122" vertex="1">
          <mxGeometry x="100" width="70" height="50" as="geometry">
            <mxRectangle width="70" height="50" as="alternateBounds" />
          </mxGeometry>
        </mxCell>
        <mxCell id="SkcSY4S7GJKtiJHQgHpd-125" value="DECIMAL" style="shape=partialRectangle;html=1;whiteSpace=wrap;connectable=0;strokeColor=inherit;overflow=hidden;fillColor=none;top=0;left=0;bottom=0;right=0;pointerEvents=1;fontSize=11;strokeWidth=1;" parent="SkcSY4S7GJKtiJHQgHpd-122" vertex="1">
          <mxGeometry x="170" width="80" height="50" as="geometry">
            <mxRectangle width="80" height="50" as="alternateBounds" />
          </mxGeometry>
        </mxCell>
        <mxCell id="2jLmIpTXg5ol4Nc5_51V-1" value="" style="shape=tableRow;horizontal=0;startSize=0;swimlaneHead=0;swimlaneBody=0;strokeColor=inherit;top=0;left=0;bottom=0;right=0;collapsible=0;dropTarget=0;fillColor=none;points=[[0,0.5],[1,0.5]];portConstraint=eastwest;fontSize=11;strokeWidth=1;" vertex="1" parent="SkcSY4S7GJKtiJHQgHpd-105">
          <mxGeometry y="280" width="250" height="50" as="geometry" />
        </mxCell>
        <mxCell id="2jLmIpTXg5ol4Nc5_51V-2" value="longitude" style="shape=partialRectangle;html=1;whiteSpace=wrap;connectable=0;strokeColor=inherit;overflow=hidden;fillColor=none;top=0;left=0;bottom=0;right=0;pointerEvents=1;fontSize=11;strokeWidth=1;" vertex="1" parent="2jLmIpTXg5ol4Nc5_51V-1">
          <mxGeometry width="100" height="50" as="geometry">
            <mxRectangle width="100" height="50" as="alternateBounds" />
          </mxGeometry>
        </mxCell>
        <mxCell id="2jLmIpTXg5ol4Nc5_51V-3" value="" style="shape=partialRectangle;html=1;whiteSpace=wrap;connectable=0;strokeColor=inherit;overflow=hidden;fillColor=none;top=0;left=0;bottom=0;right=0;pointerEvents=1;fontSize=11;strokeWidth=1;" vertex="1" parent="2jLmIpTXg5ol4Nc5_51V-1">
          <mxGeometry x="100" width="70" height="50" as="geometry">
            <mxRectangle width="70" height="50" as="alternateBounds" />
          </mxGeometry>
        </mxCell>
        <mxCell id="2jLmIpTXg5ol4Nc5_51V-4" value="DECIMAL" style="shape=partialRectangle;html=1;whiteSpace=wrap;connectable=0;strokeColor=inherit;overflow=hidden;fillColor=none;top=0;left=0;bottom=0;right=0;pointerEvents=1;fontSize=11;strokeWidth=1;" vertex="1" parent="2jLmIpTXg5ol4Nc5_51V-1">
          <mxGeometry x="170" width="80" height="50" as="geometry">
            <mxRectangle width="80" height="50" as="alternateBounds" />
          </mxGeometry>
        </mxCell>
        <mxCell id="2jLmIpTXg5ol4Nc5_51V-5" value="" style="shape=tableRow;horizontal=0;startSize=0;swimlaneHead=0;swimlaneBody=0;strokeColor=inherit;top=0;left=0;bottom=0;right=0;collapsible=0;dropTarget=0;fillColor=none;points=[[0,0.5],[1,0.5]];portConstraint=eastwest;fontSize=11;strokeWidth=1;" vertex="1" parent="SkcSY4S7GJKtiJHQgHpd-105">
          <mxGeometry y="330" width="250" height="50" as="geometry" />
        </mxCell>
        <mxCell id="2jLmIpTXg5ol4Nc5_51V-6" value="area" style="shape=partialRectangle;html=1;whiteSpace=wrap;connectable=0;strokeColor=inherit;overflow=hidden;fillColor=none;top=0;left=0;bottom=0;right=0;pointerEvents=1;fontSize=11;strokeWidth=1;" vertex="1" parent="2jLmIpTXg5ol4Nc5_51V-5">
          <mxGeometry width="100" height="50" as="geometry">
            <mxRectangle width="100" height="50" as="alternateBounds" />
          </mxGeometry>
        </mxCell>
        <mxCell id="2jLmIpTXg5ol4Nc5_51V-7" value="" style="shape=partialRectangle;html=1;whiteSpace=wrap;connectable=0;strokeColor=inherit;overflow=hidden;fillColor=none;top=0;left=0;bottom=0;right=0;pointerEvents=1;fontSize=11;strokeWidth=1;" vertex="1" parent="2jLmIpTXg5ol4Nc5_51V-5">
          <mxGeometry x="100" width="70" height="50" as="geometry">
            <mxRectangle width="70" height="50" as="alternateBounds" />
          </mxGeometry>
        </mxCell>
        <mxCell id="2jLmIpTXg5ol4Nc5_51V-8" value="INT" style="shape=partialRectangle;html=1;whiteSpace=wrap;connectable=0;strokeColor=inherit;overflow=hidden;fillColor=none;top=0;left=0;bottom=0;right=0;pointerEvents=1;fontSize=11;strokeWidth=1;" vertex="1" parent="2jLmIpTXg5ol4Nc5_51V-5">
          <mxGeometry x="170" width="80" height="50" as="geometry">
            <mxRectangle width="80" height="50" as="alternateBounds" />
          </mxGeometry>
        </mxCell>
        <mxCell id="2jLmIpTXg5ol4Nc5_51V-9" value="" style="shape=tableRow;horizontal=0;startSize=0;swimlaneHead=0;swimlaneBody=0;strokeColor=inherit;top=0;left=0;bottom=0;right=0;collapsible=0;dropTarget=0;fillColor=none;points=[[0,0.5],[1,0.5]];portConstraint=eastwest;fontSize=11;strokeWidth=1;" vertex="1" parent="SkcSY4S7GJKtiJHQgHpd-105">
          <mxGeometry y="380" width="250" height="50" as="geometry" />
        </mxCell>
        <mxCell id="2jLmIpTXg5ol4Nc5_51V-10" value="sowing" style="shape=partialRectangle;html=1;whiteSpace=wrap;connectable=0;strokeColor=inherit;overflow=hidden;fillColor=none;top=0;left=0;bottom=0;right=0;pointerEvents=1;fontSize=11;strokeWidth=1;" vertex="1" parent="2jLmIpTXg5ol4Nc5_51V-9">
          <mxGeometry width="100" height="50" as="geometry">
            <mxRectangle width="100" height="50" as="alternateBounds" />
          </mxGeometry>
        </mxCell>
        <mxCell id="2jLmIpTXg5ol4Nc5_51V-11" value="" style="shape=partialRectangle;html=1;whiteSpace=wrap;connectable=0;strokeColor=inherit;overflow=hidden;fillColor=none;top=0;left=0;bottom=0;right=0;pointerEvents=1;fontSize=11;strokeWidth=1;" vertex="1" parent="2jLmIpTXg5ol4Nc5_51V-9">
          <mxGeometry x="100" width="70" height="50" as="geometry">
            <mxRectangle width="70" height="50" as="alternateBounds" />
          </mxGeometry>
        </mxCell>
        <mxCell id="2jLmIpTXg5ol4Nc5_51V-12" value="BOOL" style="shape=partialRectangle;html=1;whiteSpace=wrap;connectable=0;strokeColor=inherit;overflow=hidden;fillColor=none;top=0;left=0;bottom=0;right=0;pointerEvents=1;fontSize=11;strokeWidth=1;" vertex="1" parent="2jLmIpTXg5ol4Nc5_51V-9">
          <mxGeometry x="170" width="80" height="50" as="geometry">
            <mxRectangle width="80" height="50" as="alternateBounds" />
          </mxGeometry>
        </mxCell>
        <mxCell id="SkcSY4S7GJKtiJHQgHpd-147" style="edgeStyle=orthogonalEdgeStyle;rounded=0;orthogonalLoop=1;jettySize=auto;html=1;exitX=1;exitY=0.5;exitDx=0;exitDy=0;entryX=0;entryY=0.5;entryDx=0;entryDy=0;fontSize=11;" parent="1" source="SkcSY4S7GJKtiJHQgHpd-28" target="SkcSY4S7GJKtiJHQgHpd-110" edge="1">
          <mxGeometry relative="1" as="geometry" />
        </mxCell>
        <mxCell id="2jLmIpTXg5ol4Nc5_51V-13" value="Alerts_gr" style="shape=table;startSize=30;container=1;collapsible=0;childLayout=tableLayout;strokeColor=default;fontSize=11;strokeWidth=1;" vertex="1" parent="1">
          <mxGeometry x="1116" y="20" width="250" height="280" as="geometry" />
        </mxCell>
        <mxCell id="2jLmIpTXg5ol4Nc5_51V-14" value="" style="shape=tableRow;horizontal=0;startSize=0;swimlaneHead=0;swimlaneBody=0;strokeColor=inherit;top=0;left=0;bottom=0;right=0;collapsible=0;dropTarget=0;fillColor=none;points=[[0,0.5],[1,0.5]];portConstraint=eastwest;fontSize=11;strokeWidth=1;" vertex="1" parent="2jLmIpTXg5ol4Nc5_51V-13">
          <mxGeometry y="30" width="250" height="50" as="geometry" />
        </mxCell>
        <mxCell id="2jLmIpTXg5ol4Nc5_51V-15" value="&lt;font style=&quot;font-size: 11px;&quot;&gt;Alerts_gr_id&lt;/font&gt;" style="shape=partialRectangle;html=1;whiteSpace=wrap;connectable=0;strokeColor=inherit;overflow=hidden;fillColor=none;top=0;left=0;bottom=0;right=0;pointerEvents=1;fontSize=11;strokeWidth=1;" vertex="1" parent="2jLmIpTXg5ol4Nc5_51V-14">
          <mxGeometry width="100" height="50" as="geometry">
            <mxRectangle width="100" height="50" as="alternateBounds" />
          </mxGeometry>
        </mxCell>
        <mxCell id="2jLmIpTXg5ol4Nc5_51V-16" value="Pk" style="shape=partialRectangle;html=1;whiteSpace=wrap;connectable=0;strokeColor=inherit;overflow=hidden;fillColor=none;top=0;left=0;bottom=0;right=0;pointerEvents=1;fontSize=11;strokeWidth=1;" vertex="1" parent="2jLmIpTXg5ol4Nc5_51V-14">
          <mxGeometry x="100" width="70" height="50" as="geometry">
            <mxRectangle width="70" height="50" as="alternateBounds" />
          </mxGeometry>
        </mxCell>
        <mxCell id="2jLmIpTXg5ol4Nc5_51V-17" value="INT" style="shape=partialRectangle;html=1;whiteSpace=wrap;connectable=0;strokeColor=inherit;overflow=hidden;fillColor=none;top=0;left=0;bottom=0;right=0;pointerEvents=1;fontSize=11;strokeWidth=1;" vertex="1" parent="2jLmIpTXg5ol4Nc5_51V-14">
          <mxGeometry x="170" width="80" height="50" as="geometry">
            <mxRectangle width="80" height="50" as="alternateBounds" />
          </mxGeometry>
        </mxCell>
        <mxCell id="2jLmIpTXg5ol4Nc5_51V-18" value="" style="shape=tableRow;horizontal=0;startSize=0;swimlaneHead=0;swimlaneBody=0;strokeColor=inherit;top=0;left=0;bottom=0;right=0;collapsible=0;dropTarget=0;fillColor=none;points=[[0,0.5],[1,0.5]];portConstraint=eastwest;fontSize=11;strokeWidth=1;" vertex="1" parent="2jLmIpTXg5ol4Nc5_51V-13">
          <mxGeometry y="80" width="250" height="50" as="geometry" />
        </mxCell>
        <mxCell id="2jLmIpTXg5ol4Nc5_51V-19" value="greenhouse" style="shape=partialRectangle;html=1;whiteSpace=wrap;connectable=0;strokeColor=inherit;overflow=hidden;fillColor=none;top=0;left=0;bottom=0;right=0;pointerEvents=1;fontSize=11;strokeWidth=1;" vertex="1" parent="2jLmIpTXg5ol4Nc5_51V-18">
          <mxGeometry width="100" height="50" as="geometry">
            <mxRectangle width="100" height="50" as="alternateBounds" />
          </mxGeometry>
        </mxCell>
        <mxCell id="2jLmIpTXg5ol4Nc5_51V-20" value="Fk" style="shape=partialRectangle;html=1;whiteSpace=wrap;connectable=0;strokeColor=inherit;overflow=hidden;fillColor=none;top=0;left=0;bottom=0;right=0;pointerEvents=1;fontSize=11;strokeWidth=1;" vertex="1" parent="2jLmIpTXg5ol4Nc5_51V-18">
          <mxGeometry x="100" width="70" height="50" as="geometry">
            <mxRectangle width="70" height="50" as="alternateBounds" />
          </mxGeometry>
        </mxCell>
        <mxCell id="2jLmIpTXg5ol4Nc5_51V-21" value="INT" style="shape=partialRectangle;html=1;whiteSpace=wrap;connectable=0;strokeColor=inherit;overflow=hidden;fillColor=none;top=0;left=0;bottom=0;right=0;pointerEvents=1;fontSize=11;strokeWidth=1;" vertex="1" parent="2jLmIpTXg5ol4Nc5_51V-18">
          <mxGeometry x="170" width="80" height="50" as="geometry">
            <mxRectangle width="80" height="50" as="alternateBounds" />
          </mxGeometry>
        </mxCell>
        <mxCell id="2jLmIpTXg5ol4Nc5_51V-22" value="" style="shape=tableRow;horizontal=0;startSize=0;swimlaneHead=0;swimlaneBody=0;strokeColor=inherit;top=0;left=0;bottom=0;right=0;collapsible=0;dropTarget=0;fillColor=none;points=[[0,0.5],[1,0.5]];portConstraint=eastwest;fontSize=11;strokeWidth=1;" vertex="1" parent="2jLmIpTXg5ol4Nc5_51V-13">
          <mxGeometry y="130" width="250" height="50" as="geometry" />
        </mxCell>
        <mxCell id="2jLmIpTXg5ol4Nc5_51V-23" value="alerts_type" style="shape=partialRectangle;html=1;whiteSpace=wrap;connectable=0;strokeColor=inherit;overflow=hidden;fillColor=none;top=0;left=0;bottom=0;right=0;pointerEvents=1;fontSize=11;strokeWidth=1;" vertex="1" parent="2jLmIpTXg5ol4Nc5_51V-22">
          <mxGeometry width="100" height="50" as="geometry">
            <mxRectangle width="100" height="50" as="alternateBounds" />
          </mxGeometry>
        </mxCell>
        <mxCell id="2jLmIpTXg5ol4Nc5_51V-24" value="" style="shape=partialRectangle;html=1;whiteSpace=wrap;connectable=0;strokeColor=inherit;overflow=hidden;fillColor=none;top=0;left=0;bottom=0;right=0;pointerEvents=1;fontSize=11;strokeWidth=1;" vertex="1" parent="2jLmIpTXg5ol4Nc5_51V-22">
          <mxGeometry x="100" width="70" height="50" as="geometry">
            <mxRectangle width="70" height="50" as="alternateBounds" />
          </mxGeometry>
        </mxCell>
        <mxCell id="2jLmIpTXg5ol4Nc5_51V-25" value="CHAR(20)" style="shape=partialRectangle;html=1;whiteSpace=wrap;connectable=0;strokeColor=inherit;overflow=hidden;fillColor=none;top=0;left=0;bottom=0;right=0;pointerEvents=1;fontSize=11;strokeWidth=1;" vertex="1" parent="2jLmIpTXg5ol4Nc5_51V-22">
          <mxGeometry x="170" width="80" height="50" as="geometry">
            <mxRectangle width="80" height="50" as="alternateBounds" />
          </mxGeometry>
        </mxCell>
        <mxCell id="2jLmIpTXg5ol4Nc5_51V-26" value="" style="shape=tableRow;horizontal=0;startSize=0;swimlaneHead=0;swimlaneBody=0;strokeColor=inherit;top=0;left=0;bottom=0;right=0;collapsible=0;dropTarget=0;fillColor=none;points=[[0,0.5],[1,0.5]];portConstraint=eastwest;fontSize=11;strokeWidth=1;" vertex="1" parent="2jLmIpTXg5ol4Nc5_51V-13">
          <mxGeometry y="180" width="250" height="50" as="geometry" />
        </mxCell>
        <mxCell id="2jLmIpTXg5ol4Nc5_51V-27" value="datetime" style="shape=partialRectangle;html=1;whiteSpace=wrap;connectable=0;strokeColor=inherit;overflow=hidden;fillColor=none;top=0;left=0;bottom=0;right=0;pointerEvents=1;fontSize=11;strokeWidth=1;" vertex="1" parent="2jLmIpTXg5ol4Nc5_51V-26">
          <mxGeometry width="100" height="50" as="geometry">
            <mxRectangle width="100" height="50" as="alternateBounds" />
          </mxGeometry>
        </mxCell>
        <mxCell id="2jLmIpTXg5ol4Nc5_51V-28" value="" style="shape=partialRectangle;html=1;whiteSpace=wrap;connectable=0;strokeColor=inherit;overflow=hidden;fillColor=none;top=0;left=0;bottom=0;right=0;pointerEvents=1;fontSize=11;strokeWidth=1;" vertex="1" parent="2jLmIpTXg5ol4Nc5_51V-26">
          <mxGeometry x="100" width="70" height="50" as="geometry">
            <mxRectangle width="70" height="50" as="alternateBounds" />
          </mxGeometry>
        </mxCell>
        <mxCell id="2jLmIpTXg5ol4Nc5_51V-29" value="DATETIME" style="shape=partialRectangle;html=1;whiteSpace=wrap;connectable=0;strokeColor=inherit;overflow=hidden;fillColor=none;top=0;left=0;bottom=0;right=0;pointerEvents=1;fontSize=11;strokeWidth=1;" vertex="1" parent="2jLmIpTXg5ol4Nc5_51V-26">
          <mxGeometry x="170" width="80" height="50" as="geometry">
            <mxRectangle width="80" height="50" as="alternateBounds" />
          </mxGeometry>
        </mxCell>
        <mxCell id="2jLmIpTXg5ol4Nc5_51V-30" value="" style="shape=tableRow;horizontal=0;startSize=0;swimlaneHead=0;swimlaneBody=0;strokeColor=inherit;top=0;left=0;bottom=0;right=0;collapsible=0;dropTarget=0;fillColor=none;points=[[0,0.5],[1,0.5]];portConstraint=eastwest;fontSize=11;strokeWidth=1;" vertex="1" parent="2jLmIpTXg5ol4Nc5_51V-13">
          <mxGeometry y="230" width="250" height="50" as="geometry" />
        </mxCell>
        <mxCell id="2jLmIpTXg5ol4Nc5_51V-31" value="message" style="shape=partialRectangle;html=1;whiteSpace=wrap;connectable=0;strokeColor=inherit;overflow=hidden;fillColor=none;top=0;left=0;bottom=0;right=0;pointerEvents=1;fontSize=11;strokeWidth=1;" vertex="1" parent="2jLmIpTXg5ol4Nc5_51V-30">
          <mxGeometry width="100" height="50" as="geometry">
            <mxRectangle width="100" height="50" as="alternateBounds" />
          </mxGeometry>
        </mxCell>
        <mxCell id="2jLmIpTXg5ol4Nc5_51V-32" value="" style="shape=partialRectangle;html=1;whiteSpace=wrap;connectable=0;strokeColor=inherit;overflow=hidden;fillColor=none;top=0;left=0;bottom=0;right=0;pointerEvents=1;fontSize=11;strokeWidth=1;" vertex="1" parent="2jLmIpTXg5ol4Nc5_51V-30">
          <mxGeometry x="100" width="70" height="50" as="geometry">
            <mxRectangle width="70" height="50" as="alternateBounds" />
          </mxGeometry>
        </mxCell>
        <mxCell id="2jLmIpTXg5ol4Nc5_51V-33" value="TEXT" style="shape=partialRectangle;html=1;whiteSpace=wrap;connectable=0;strokeColor=inherit;overflow=hidden;fillColor=none;top=0;left=0;bottom=0;right=0;pointerEvents=1;fontSize=11;strokeWidth=1;" vertex="1" parent="2jLmIpTXg5ol4Nc5_51V-30">
          <mxGeometry x="170" width="80" height="50" as="geometry">
            <mxRectangle width="80" height="50" as="alternateBounds" />
          </mxGeometry>
        </mxCell>
        <mxCell id="2jLmIpTXg5ol4Nc5_51V-46" style="edgeStyle=orthogonalEdgeStyle;rounded=0;orthogonalLoop=1;jettySize=auto;html=1;exitX=1;exitY=0.5;exitDx=0;exitDy=0;entryX=0;entryY=0.5;entryDx=0;entryDy=0;" edge="1" parent="1" source="SkcSY4S7GJKtiJHQgHpd-106" target="2jLmIpTXg5ol4Nc5_51V-18">
          <mxGeometry relative="1" as="geometry" />
        </mxCell>
        <mxCell id="2jLmIpTXg5ol4Nc5_51V-83" value="Registry" style="shape=table;startSize=30;container=1;collapsible=0;childLayout=tableLayout;strokeColor=default;fontSize=11;strokeWidth=1;" vertex="1" parent="1">
          <mxGeometry x="1116" y="340" width="250" height="530" as="geometry" />
        </mxCell>
        <mxCell id="2jLmIpTXg5ol4Nc5_51V-84" value="" style="shape=tableRow;horizontal=0;startSize=0;swimlaneHead=0;swimlaneBody=0;strokeColor=inherit;top=0;left=0;bottom=0;right=0;collapsible=0;dropTarget=0;fillColor=none;points=[[0,0.5],[1,0.5]];portConstraint=eastwest;fontSize=11;strokeWidth=1;" vertex="1" parent="2jLmIpTXg5ol4Nc5_51V-83">
          <mxGeometry y="30" width="250" height="50" as="geometry" />
        </mxCell>
        <mxCell id="2jLmIpTXg5ol4Nc5_51V-85" value="&lt;span style=&quot;text-wrap: nowrap;&quot;&gt;Registry_id&lt;/span&gt;" style="shape=partialRectangle;html=1;whiteSpace=wrap;connectable=0;strokeColor=inherit;overflow=hidden;fillColor=none;top=0;left=0;bottom=0;right=0;pointerEvents=1;fontSize=11;strokeWidth=1;" vertex="1" parent="2jLmIpTXg5ol4Nc5_51V-84">
          <mxGeometry width="100" height="50" as="geometry">
            <mxRectangle width="100" height="50" as="alternateBounds" />
          </mxGeometry>
        </mxCell>
        <mxCell id="2jLmIpTXg5ol4Nc5_51V-86" value="Pk" style="shape=partialRectangle;html=1;whiteSpace=wrap;connectable=0;strokeColor=inherit;overflow=hidden;fillColor=none;top=0;left=0;bottom=0;right=0;pointerEvents=1;fontSize=11;strokeWidth=1;" vertex="1" parent="2jLmIpTXg5ol4Nc5_51V-84">
          <mxGeometry x="100" width="70" height="50" as="geometry">
            <mxRectangle width="70" height="50" as="alternateBounds" />
          </mxGeometry>
        </mxCell>
        <mxCell id="2jLmIpTXg5ol4Nc5_51V-87" value="INT" style="shape=partialRectangle;html=1;whiteSpace=wrap;connectable=0;strokeColor=inherit;overflow=hidden;fillColor=none;top=0;left=0;bottom=0;right=0;pointerEvents=1;fontSize=11;strokeWidth=1;" vertex="1" parent="2jLmIpTXg5ol4Nc5_51V-84">
          <mxGeometry x="170" width="80" height="50" as="geometry">
            <mxRectangle width="80" height="50" as="alternateBounds" />
          </mxGeometry>
        </mxCell>
        <mxCell id="2jLmIpTXg5ol4Nc5_51V-88" value="" style="shape=tableRow;horizontal=0;startSize=0;swimlaneHead=0;swimlaneBody=0;strokeColor=inherit;top=0;left=0;bottom=0;right=0;collapsible=0;dropTarget=0;fillColor=none;points=[[0,0.5],[1,0.5]];portConstraint=eastwest;fontSize=11;strokeWidth=1;" vertex="1" parent="2jLmIpTXg5ol4Nc5_51V-83">
          <mxGeometry y="80" width="250" height="50" as="geometry" />
        </mxCell>
        <mxCell id="2jLmIpTXg5ol4Nc5_51V-89" value="greenhouse" style="shape=partialRectangle;html=1;whiteSpace=wrap;connectable=0;strokeColor=inherit;overflow=hidden;fillColor=none;top=0;left=0;bottom=0;right=0;pointerEvents=1;fontSize=11;strokeWidth=1;" vertex="1" parent="2jLmIpTXg5ol4Nc5_51V-88">
          <mxGeometry width="100" height="50" as="geometry">
            <mxRectangle width="100" height="50" as="alternateBounds" />
          </mxGeometry>
        </mxCell>
        <mxCell id="2jLmIpTXg5ol4Nc5_51V-90" value="Fk" style="shape=partialRectangle;html=1;whiteSpace=wrap;connectable=0;strokeColor=inherit;overflow=hidden;fillColor=none;top=0;left=0;bottom=0;right=0;pointerEvents=1;fontSize=11;strokeWidth=1;" vertex="1" parent="2jLmIpTXg5ol4Nc5_51V-88">
          <mxGeometry x="100" width="70" height="50" as="geometry">
            <mxRectangle width="70" height="50" as="alternateBounds" />
          </mxGeometry>
        </mxCell>
        <mxCell id="2jLmIpTXg5ol4Nc5_51V-91" value="INT" style="shape=partialRectangle;html=1;whiteSpace=wrap;connectable=0;strokeColor=inherit;overflow=hidden;fillColor=none;top=0;left=0;bottom=0;right=0;pointerEvents=1;fontSize=11;strokeWidth=1;" vertex="1" parent="2jLmIpTXg5ol4Nc5_51V-88">
          <mxGeometry x="170" width="80" height="50" as="geometry">
            <mxRectangle width="80" height="50" as="alternateBounds" />
          </mxGeometry>
        </mxCell>
        <mxCell id="2jLmIpTXg5ol4Nc5_51V-96" value="" style="shape=tableRow;horizontal=0;startSize=0;swimlaneHead=0;swimlaneBody=0;strokeColor=inherit;top=0;left=0;bottom=0;right=0;collapsible=0;dropTarget=0;fillColor=none;points=[[0,0.5],[1,0.5]];portConstraint=eastwest;fontSize=11;strokeWidth=1;" vertex="1" parent="2jLmIpTXg5ol4Nc5_51V-83">
          <mxGeometry y="130" width="250" height="50" as="geometry" />
        </mxCell>
        <mxCell id="2jLmIpTXg5ol4Nc5_51V-97" value="datetime" style="shape=partialRectangle;html=1;whiteSpace=wrap;connectable=0;strokeColor=inherit;overflow=hidden;fillColor=none;top=0;left=0;bottom=0;right=0;pointerEvents=1;fontSize=11;strokeWidth=1;" vertex="1" parent="2jLmIpTXg5ol4Nc5_51V-96">
          <mxGeometry width="100" height="50" as="geometry">
            <mxRectangle width="100" height="50" as="alternateBounds" />
          </mxGeometry>
        </mxCell>
        <mxCell id="2jLmIpTXg5ol4Nc5_51V-98" value="" style="shape=partialRectangle;html=1;whiteSpace=wrap;connectable=0;strokeColor=inherit;overflow=hidden;fillColor=none;top=0;left=0;bottom=0;right=0;pointerEvents=1;fontSize=11;strokeWidth=1;" vertex="1" parent="2jLmIpTXg5ol4Nc5_51V-96">
          <mxGeometry x="100" width="70" height="50" as="geometry">
            <mxRectangle width="70" height="50" as="alternateBounds" />
          </mxGeometry>
        </mxCell>
        <mxCell id="2jLmIpTXg5ol4Nc5_51V-99" value="DATETIME" style="shape=partialRectangle;html=1;whiteSpace=wrap;connectable=0;strokeColor=inherit;overflow=hidden;fillColor=none;top=0;left=0;bottom=0;right=0;pointerEvents=1;fontSize=11;strokeWidth=1;" vertex="1" parent="2jLmIpTXg5ol4Nc5_51V-96">
          <mxGeometry x="170" width="80" height="50" as="geometry">
            <mxRectangle width="80" height="50" as="alternateBounds" />
          </mxGeometry>
        </mxCell>
        <mxCell id="2jLmIpTXg5ol4Nc5_51V-100" value="" style="shape=tableRow;horizontal=0;startSize=0;swimlaneHead=0;swimlaneBody=0;strokeColor=inherit;top=0;left=0;bottom=0;right=0;collapsible=0;dropTarget=0;fillColor=none;points=[[0,0.5],[1,0.5]];portConstraint=eastwest;fontSize=11;strokeWidth=1;" vertex="1" parent="2jLmIpTXg5ol4Nc5_51V-83">
          <mxGeometry y="180" width="250" height="50" as="geometry" />
        </mxCell>
        <mxCell id="2jLmIpTXg5ol4Nc5_51V-101" value="water" style="shape=partialRectangle;html=1;whiteSpace=wrap;connectable=0;strokeColor=inherit;overflow=hidden;fillColor=none;top=0;left=0;bottom=0;right=0;pointerEvents=1;fontSize=11;strokeWidth=1;" vertex="1" parent="2jLmIpTXg5ol4Nc5_51V-100">
          <mxGeometry width="100" height="50" as="geometry">
            <mxRectangle width="100" height="50" as="alternateBounds" />
          </mxGeometry>
        </mxCell>
        <mxCell id="2jLmIpTXg5ol4Nc5_51V-102" value="" style="shape=partialRectangle;html=1;whiteSpace=wrap;connectable=0;strokeColor=inherit;overflow=hidden;fillColor=none;top=0;left=0;bottom=0;right=0;pointerEvents=1;fontSize=11;strokeWidth=1;" vertex="1" parent="2jLmIpTXg5ol4Nc5_51V-100">
          <mxGeometry x="100" width="70" height="50" as="geometry">
            <mxRectangle width="70" height="50" as="alternateBounds" />
          </mxGeometry>
        </mxCell>
        <mxCell id="2jLmIpTXg5ol4Nc5_51V-103" value="INT" style="shape=partialRectangle;html=1;whiteSpace=wrap;connectable=0;strokeColor=inherit;overflow=hidden;fillColor=none;top=0;left=0;bottom=0;right=0;pointerEvents=1;fontSize=11;strokeWidth=1;" vertex="1" parent="2jLmIpTXg5ol4Nc5_51V-100">
          <mxGeometry x="170" width="80" height="50" as="geometry">
            <mxRectangle width="80" height="50" as="alternateBounds" />
          </mxGeometry>
        </mxCell>
        <mxCell id="2jLmIpTXg5ol4Nc5_51V-105" value="" style="shape=tableRow;horizontal=0;startSize=0;swimlaneHead=0;swimlaneBody=0;strokeColor=inherit;top=0;left=0;bottom=0;right=0;collapsible=0;dropTarget=0;fillColor=none;points=[[0,0.5],[1,0.5]];portConstraint=eastwest;fontSize=11;strokeWidth=1;" vertex="1" parent="2jLmIpTXg5ol4Nc5_51V-83">
          <mxGeometry y="230" width="250" height="50" as="geometry" />
        </mxCell>
        <mxCell id="2jLmIpTXg5ol4Nc5_51V-106" value="temp1" style="shape=partialRectangle;html=1;whiteSpace=wrap;connectable=0;strokeColor=inherit;overflow=hidden;fillColor=none;top=0;left=0;bottom=0;right=0;pointerEvents=1;fontSize=11;strokeWidth=1;" vertex="1" parent="2jLmIpTXg5ol4Nc5_51V-105">
          <mxGeometry width="100" height="50" as="geometry">
            <mxRectangle width="100" height="50" as="alternateBounds" />
          </mxGeometry>
        </mxCell>
        <mxCell id="2jLmIpTXg5ol4Nc5_51V-107" value="" style="shape=partialRectangle;html=1;whiteSpace=wrap;connectable=0;strokeColor=inherit;overflow=hidden;fillColor=none;top=0;left=0;bottom=0;right=0;pointerEvents=1;fontSize=11;strokeWidth=1;" vertex="1" parent="2jLmIpTXg5ol4Nc5_51V-105">
          <mxGeometry x="100" width="70" height="50" as="geometry">
            <mxRectangle width="70" height="50" as="alternateBounds" />
          </mxGeometry>
        </mxCell>
        <mxCell id="2jLmIpTXg5ol4Nc5_51V-108" value="INT" style="shape=partialRectangle;html=1;whiteSpace=wrap;connectable=0;strokeColor=inherit;overflow=hidden;fillColor=none;top=0;left=0;bottom=0;right=0;pointerEvents=1;fontSize=11;strokeWidth=1;" vertex="1" parent="2jLmIpTXg5ol4Nc5_51V-105">
          <mxGeometry x="170" width="80" height="50" as="geometry">
            <mxRectangle width="80" height="50" as="alternateBounds" />
          </mxGeometry>
        </mxCell>
        <mxCell id="2jLmIpTXg5ol4Nc5_51V-109" value="" style="shape=tableRow;horizontal=0;startSize=0;swimlaneHead=0;swimlaneBody=0;strokeColor=inherit;top=0;left=0;bottom=0;right=0;collapsible=0;dropTarget=0;fillColor=none;points=[[0,0.5],[1,0.5]];portConstraint=eastwest;fontSize=11;strokeWidth=1;" vertex="1" parent="2jLmIpTXg5ol4Nc5_51V-83">
          <mxGeometry y="280" width="250" height="50" as="geometry" />
        </mxCell>
        <mxCell id="2jLmIpTXg5ol4Nc5_51V-110" value="temp2" style="shape=partialRectangle;html=1;whiteSpace=wrap;connectable=0;strokeColor=inherit;overflow=hidden;fillColor=none;top=0;left=0;bottom=0;right=0;pointerEvents=1;fontSize=11;strokeWidth=1;" vertex="1" parent="2jLmIpTXg5ol4Nc5_51V-109">
          <mxGeometry width="100" height="50" as="geometry">
            <mxRectangle width="100" height="50" as="alternateBounds" />
          </mxGeometry>
        </mxCell>
        <mxCell id="2jLmIpTXg5ol4Nc5_51V-111" value="" style="shape=partialRectangle;html=1;whiteSpace=wrap;connectable=0;strokeColor=inherit;overflow=hidden;fillColor=none;top=0;left=0;bottom=0;right=0;pointerEvents=1;fontSize=11;strokeWidth=1;" vertex="1" parent="2jLmIpTXg5ol4Nc5_51V-109">
          <mxGeometry x="100" width="70" height="50" as="geometry">
            <mxRectangle width="70" height="50" as="alternateBounds" />
          </mxGeometry>
        </mxCell>
        <mxCell id="2jLmIpTXg5ol4Nc5_51V-112" value="INT" style="shape=partialRectangle;html=1;whiteSpace=wrap;connectable=0;strokeColor=inherit;overflow=hidden;fillColor=none;top=0;left=0;bottom=0;right=0;pointerEvents=1;fontSize=11;strokeWidth=1;" vertex="1" parent="2jLmIpTXg5ol4Nc5_51V-109">
          <mxGeometry x="170" width="80" height="50" as="geometry">
            <mxRectangle width="80" height="50" as="alternateBounds" />
          </mxGeometry>
        </mxCell>
        <mxCell id="2jLmIpTXg5ol4Nc5_51V-113" value="" style="shape=tableRow;horizontal=0;startSize=0;swimlaneHead=0;swimlaneBody=0;strokeColor=inherit;top=0;left=0;bottom=0;right=0;collapsible=0;dropTarget=0;fillColor=none;points=[[0,0.5],[1,0.5]];portConstraint=eastwest;fontSize=11;strokeWidth=1;" vertex="1" parent="2jLmIpTXg5ol4Nc5_51V-83">
          <mxGeometry y="330" width="250" height="50" as="geometry" />
        </mxCell>
        <mxCell id="2jLmIpTXg5ol4Nc5_51V-114" value="temp3" style="shape=partialRectangle;html=1;whiteSpace=wrap;connectable=0;strokeColor=inherit;overflow=hidden;fillColor=none;top=0;left=0;bottom=0;right=0;pointerEvents=1;fontSize=11;strokeWidth=1;" vertex="1" parent="2jLmIpTXg5ol4Nc5_51V-113">
          <mxGeometry width="100" height="50" as="geometry">
            <mxRectangle width="100" height="50" as="alternateBounds" />
          </mxGeometry>
        </mxCell>
        <mxCell id="2jLmIpTXg5ol4Nc5_51V-115" value="" style="shape=partialRectangle;html=1;whiteSpace=wrap;connectable=0;strokeColor=inherit;overflow=hidden;fillColor=none;top=0;left=0;bottom=0;right=0;pointerEvents=1;fontSize=11;strokeWidth=1;" vertex="1" parent="2jLmIpTXg5ol4Nc5_51V-113">
          <mxGeometry x="100" width="70" height="50" as="geometry">
            <mxRectangle width="70" height="50" as="alternateBounds" />
          </mxGeometry>
        </mxCell>
        <mxCell id="2jLmIpTXg5ol4Nc5_51V-116" value="INT" style="shape=partialRectangle;html=1;whiteSpace=wrap;connectable=0;strokeColor=inherit;overflow=hidden;fillColor=none;top=0;left=0;bottom=0;right=0;pointerEvents=1;fontSize=11;strokeWidth=1;" vertex="1" parent="2jLmIpTXg5ol4Nc5_51V-113">
          <mxGeometry x="170" width="80" height="50" as="geometry">
            <mxRectangle width="80" height="50" as="alternateBounds" />
          </mxGeometry>
        </mxCell>
        <mxCell id="2jLmIpTXg5ol4Nc5_51V-117" value="" style="shape=tableRow;horizontal=0;startSize=0;swimlaneHead=0;swimlaneBody=0;strokeColor=inherit;top=0;left=0;bottom=0;right=0;collapsible=0;dropTarget=0;fillColor=none;points=[[0,0.5],[1,0.5]];portConstraint=eastwest;fontSize=11;strokeWidth=1;" vertex="1" parent="2jLmIpTXg5ol4Nc5_51V-83">
          <mxGeometry y="380" width="250" height="50" as="geometry" />
        </mxCell>
        <mxCell id="2jLmIpTXg5ol4Nc5_51V-118" value="soil_moisture" style="shape=partialRectangle;html=1;whiteSpace=wrap;connectable=0;strokeColor=inherit;overflow=hidden;fillColor=none;top=0;left=0;bottom=0;right=0;pointerEvents=1;fontSize=11;strokeWidth=1;" vertex="1" parent="2jLmIpTXg5ol4Nc5_51V-117">
          <mxGeometry width="100" height="50" as="geometry">
            <mxRectangle width="100" height="50" as="alternateBounds" />
          </mxGeometry>
        </mxCell>
        <mxCell id="2jLmIpTXg5ol4Nc5_51V-119" value="" style="shape=partialRectangle;html=1;whiteSpace=wrap;connectable=0;strokeColor=inherit;overflow=hidden;fillColor=none;top=0;left=0;bottom=0;right=0;pointerEvents=1;fontSize=11;strokeWidth=1;" vertex="1" parent="2jLmIpTXg5ol4Nc5_51V-117">
          <mxGeometry x="100" width="70" height="50" as="geometry">
            <mxRectangle width="70" height="50" as="alternateBounds" />
          </mxGeometry>
        </mxCell>
        <mxCell id="2jLmIpTXg5ol4Nc5_51V-120" value="INT" style="shape=partialRectangle;html=1;whiteSpace=wrap;connectable=0;strokeColor=inherit;overflow=hidden;fillColor=none;top=0;left=0;bottom=0;right=0;pointerEvents=1;fontSize=11;strokeWidth=1;" vertex="1" parent="2jLmIpTXg5ol4Nc5_51V-117">
          <mxGeometry x="170" width="80" height="50" as="geometry">
            <mxRectangle width="80" height="50" as="alternateBounds" />
          </mxGeometry>
        </mxCell>
        <mxCell id="2jLmIpTXg5ol4Nc5_51V-121" value="" style="shape=tableRow;horizontal=0;startSize=0;swimlaneHead=0;swimlaneBody=0;strokeColor=inherit;top=0;left=0;bottom=0;right=0;collapsible=0;dropTarget=0;fillColor=none;points=[[0,0.5],[1,0.5]];portConstraint=eastwest;fontSize=11;strokeWidth=1;" vertex="1" parent="2jLmIpTXg5ol4Nc5_51V-83">
          <mxGeometry y="430" width="250" height="50" as="geometry" />
        </mxCell>
        <mxCell id="2jLmIpTXg5ol4Nc5_51V-122" value="air_humidity" style="shape=partialRectangle;html=1;whiteSpace=wrap;connectable=0;strokeColor=inherit;overflow=hidden;fillColor=none;top=0;left=0;bottom=0;right=0;pointerEvents=1;fontSize=11;strokeWidth=1;" vertex="1" parent="2jLmIpTXg5ol4Nc5_51V-121">
          <mxGeometry width="100" height="50" as="geometry">
            <mxRectangle width="100" height="50" as="alternateBounds" />
          </mxGeometry>
        </mxCell>
        <mxCell id="2jLmIpTXg5ol4Nc5_51V-123" value="" style="shape=partialRectangle;html=1;whiteSpace=wrap;connectable=0;strokeColor=inherit;overflow=hidden;fillColor=none;top=0;left=0;bottom=0;right=0;pointerEvents=1;fontSize=11;strokeWidth=1;" vertex="1" parent="2jLmIpTXg5ol4Nc5_51V-121">
          <mxGeometry x="100" width="70" height="50" as="geometry">
            <mxRectangle width="70" height="50" as="alternateBounds" />
          </mxGeometry>
        </mxCell>
        <mxCell id="2jLmIpTXg5ol4Nc5_51V-124" value="INT" style="shape=partialRectangle;html=1;whiteSpace=wrap;connectable=0;strokeColor=inherit;overflow=hidden;fillColor=none;top=0;left=0;bottom=0;right=0;pointerEvents=1;fontSize=11;strokeWidth=1;" vertex="1" parent="2jLmIpTXg5ol4Nc5_51V-121">
          <mxGeometry x="170" width="80" height="50" as="geometry">
            <mxRectangle width="80" height="50" as="alternateBounds" />
          </mxGeometry>
        </mxCell>
        <mxCell id="2jLmIpTXg5ol4Nc5_51V-125" value="" style="shape=tableRow;horizontal=0;startSize=0;swimlaneHead=0;swimlaneBody=0;strokeColor=inherit;top=0;left=0;bottom=0;right=0;collapsible=0;dropTarget=0;fillColor=none;points=[[0,0.5],[1,0.5]];portConstraint=eastwest;fontSize=11;strokeWidth=1;" vertex="1" parent="2jLmIpTXg5ol4Nc5_51V-83">
          <mxGeometry y="480" width="250" height="50" as="geometry" />
        </mxCell>
        <mxCell id="2jLmIpTXg5ol4Nc5_51V-126" value="energy_usage" style="shape=partialRectangle;html=1;whiteSpace=wrap;connectable=0;strokeColor=inherit;overflow=hidden;fillColor=none;top=0;left=0;bottom=0;right=0;pointerEvents=1;fontSize=11;strokeWidth=1;" vertex="1" parent="2jLmIpTXg5ol4Nc5_51V-125">
          <mxGeometry width="100" height="50" as="geometry">
            <mxRectangle width="100" height="50" as="alternateBounds" />
          </mxGeometry>
        </mxCell>
        <mxCell id="2jLmIpTXg5ol4Nc5_51V-127" value="" style="shape=partialRectangle;html=1;whiteSpace=wrap;connectable=0;strokeColor=inherit;overflow=hidden;fillColor=none;top=0;left=0;bottom=0;right=0;pointerEvents=1;fontSize=11;strokeWidth=1;" vertex="1" parent="2jLmIpTXg5ol4Nc5_51V-125">
          <mxGeometry x="100" width="70" height="50" as="geometry">
            <mxRectangle width="70" height="50" as="alternateBounds" />
          </mxGeometry>
        </mxCell>
        <mxCell id="2jLmIpTXg5ol4Nc5_51V-128" value="INT" style="shape=partialRectangle;html=1;whiteSpace=wrap;connectable=0;strokeColor=inherit;overflow=hidden;fillColor=none;top=0;left=0;bottom=0;right=0;pointerEvents=1;fontSize=11;strokeWidth=1;" vertex="1" parent="2jLmIpTXg5ol4Nc5_51V-125">
          <mxGeometry x="170" width="80" height="50" as="geometry">
            <mxRectangle width="80" height="50" as="alternateBounds" />
          </mxGeometry>
        </mxCell>
        <mxCell id="2jLmIpTXg5ol4Nc5_51V-104" style="edgeStyle=orthogonalEdgeStyle;rounded=0;orthogonalLoop=1;jettySize=auto;html=1;exitX=1;exitY=0.5;exitDx=0;exitDy=0;entryX=0;entryY=0.5;entryDx=0;entryDy=0;" edge="1" parent="1" source="SkcSY4S7GJKtiJHQgHpd-106" target="2jLmIpTXg5ol4Nc5_51V-88">
          <mxGeometry relative="1" as="geometry" />
        </mxCell>
        <mxCell id="2jLmIpTXg5ol4Nc5_51V-129" value="GreenhouseControl" style="shape=table;startSize=30;container=1;collapsible=0;childLayout=tableLayout;strokeColor=default;fontSize=11;strokeWidth=1;" vertex="1" parent="1">
          <mxGeometry x="770" y="520" width="250" height="380" as="geometry" />
        </mxCell>
        <mxCell id="2jLmIpTXg5ol4Nc5_51V-130" value="" style="shape=tableRow;horizontal=0;startSize=0;swimlaneHead=0;swimlaneBody=0;strokeColor=inherit;top=0;left=0;bottom=0;right=0;collapsible=0;dropTarget=0;fillColor=none;points=[[0,0.5],[1,0.5]];portConstraint=eastwest;fontSize=11;strokeWidth=1;" vertex="1" parent="2jLmIpTXg5ol4Nc5_51V-129">
          <mxGeometry y="30" width="250" height="50" as="geometry" />
        </mxCell>
        <mxCell id="2jLmIpTXg5ol4Nc5_51V-131" value="&lt;span style=&quot;text-wrap: nowrap;&quot;&gt;Greenhouse&lt;/span&gt;&lt;div&gt;&lt;span style=&quot;text-wrap: nowrap;&quot;&gt;Control_id&lt;/span&gt;&lt;/div&gt;" style="shape=partialRectangle;html=1;whiteSpace=wrap;connectable=0;strokeColor=inherit;overflow=hidden;fillColor=none;top=0;left=0;bottom=0;right=0;pointerEvents=1;fontSize=11;strokeWidth=1;" vertex="1" parent="2jLmIpTXg5ol4Nc5_51V-130">
          <mxGeometry width="100" height="50" as="geometry">
            <mxRectangle width="100" height="50" as="alternateBounds" />
          </mxGeometry>
        </mxCell>
        <mxCell id="2jLmIpTXg5ol4Nc5_51V-132" value="Pk" style="shape=partialRectangle;html=1;whiteSpace=wrap;connectable=0;strokeColor=inherit;overflow=hidden;fillColor=none;top=0;left=0;bottom=0;right=0;pointerEvents=1;fontSize=11;strokeWidth=1;" vertex="1" parent="2jLmIpTXg5ol4Nc5_51V-130">
          <mxGeometry x="100" width="70" height="50" as="geometry">
            <mxRectangle width="70" height="50" as="alternateBounds" />
          </mxGeometry>
        </mxCell>
        <mxCell id="2jLmIpTXg5ol4Nc5_51V-133" value="INT" style="shape=partialRectangle;html=1;whiteSpace=wrap;connectable=0;strokeColor=inherit;overflow=hidden;fillColor=none;top=0;left=0;bottom=0;right=0;pointerEvents=1;fontSize=11;strokeWidth=1;" vertex="1" parent="2jLmIpTXg5ol4Nc5_51V-130">
          <mxGeometry x="170" width="80" height="50" as="geometry">
            <mxRectangle width="80" height="50" as="alternateBounds" />
          </mxGeometry>
        </mxCell>
        <mxCell id="2jLmIpTXg5ol4Nc5_51V-134" value="" style="shape=tableRow;horizontal=0;startSize=0;swimlaneHead=0;swimlaneBody=0;strokeColor=inherit;top=0;left=0;bottom=0;right=0;collapsible=0;dropTarget=0;fillColor=none;points=[[0,0.5],[1,0.5]];portConstraint=eastwest;fontSize=11;strokeWidth=1;" vertex="1" parent="2jLmIpTXg5ol4Nc5_51V-129">
          <mxGeometry y="80" width="250" height="50" as="geometry" />
        </mxCell>
        <mxCell id="2jLmIpTXg5ol4Nc5_51V-135" value="greenhouse" style="shape=partialRectangle;html=1;whiteSpace=wrap;connectable=0;strokeColor=inherit;overflow=hidden;fillColor=none;top=0;left=0;bottom=0;right=0;pointerEvents=1;fontSize=11;strokeWidth=1;" vertex="1" parent="2jLmIpTXg5ol4Nc5_51V-134">
          <mxGeometry width="100" height="50" as="geometry">
            <mxRectangle width="100" height="50" as="alternateBounds" />
          </mxGeometry>
        </mxCell>
        <mxCell id="2jLmIpTXg5ol4Nc5_51V-136" value="Fk" style="shape=partialRectangle;html=1;whiteSpace=wrap;connectable=0;strokeColor=inherit;overflow=hidden;fillColor=none;top=0;left=0;bottom=0;right=0;pointerEvents=1;fontSize=11;strokeWidth=1;" vertex="1" parent="2jLmIpTXg5ol4Nc5_51V-134">
          <mxGeometry x="100" width="70" height="50" as="geometry">
            <mxRectangle width="70" height="50" as="alternateBounds" />
          </mxGeometry>
        </mxCell>
        <mxCell id="2jLmIpTXg5ol4Nc5_51V-137" value="INT" style="shape=partialRectangle;html=1;whiteSpace=wrap;connectable=0;strokeColor=inherit;overflow=hidden;fillColor=none;top=0;left=0;bottom=0;right=0;pointerEvents=1;fontSize=11;strokeWidth=1;" vertex="1" parent="2jLmIpTXg5ol4Nc5_51V-134">
          <mxGeometry x="170" width="80" height="50" as="geometry">
            <mxRectangle width="80" height="50" as="alternateBounds" />
          </mxGeometry>
        </mxCell>
        <mxCell id="2jLmIpTXg5ol4Nc5_51V-138" value="" style="shape=tableRow;horizontal=0;startSize=0;swimlaneHead=0;swimlaneBody=0;strokeColor=inherit;top=0;left=0;bottom=0;right=0;collapsible=0;dropTarget=0;fillColor=none;points=[[0,0.5],[1,0.5]];portConstraint=eastwest;fontSize=11;strokeWidth=1;" vertex="1" parent="2jLmIpTXg5ol4Nc5_51V-129">
          <mxGeometry y="130" width="250" height="50" as="geometry" />
        </mxCell>
        <mxCell id="2jLmIpTXg5ol4Nc5_51V-139" value="ventilation" style="shape=partialRectangle;html=1;whiteSpace=wrap;connectable=0;strokeColor=inherit;overflow=hidden;fillColor=none;top=0;left=0;bottom=0;right=0;pointerEvents=1;fontSize=11;strokeWidth=1;" vertex="1" parent="2jLmIpTXg5ol4Nc5_51V-138">
          <mxGeometry width="100" height="50" as="geometry">
            <mxRectangle width="100" height="50" as="alternateBounds" />
          </mxGeometry>
        </mxCell>
        <mxCell id="2jLmIpTXg5ol4Nc5_51V-140" value="" style="shape=partialRectangle;html=1;whiteSpace=wrap;connectable=0;strokeColor=inherit;overflow=hidden;fillColor=none;top=0;left=0;bottom=0;right=0;pointerEvents=1;fontSize=11;strokeWidth=1;" vertex="1" parent="2jLmIpTXg5ol4Nc5_51V-138">
          <mxGeometry x="100" width="70" height="50" as="geometry">
            <mxRectangle width="70" height="50" as="alternateBounds" />
          </mxGeometry>
        </mxCell>
        <mxCell id="2jLmIpTXg5ol4Nc5_51V-141" value="BOOL" style="shape=partialRectangle;html=1;whiteSpace=wrap;connectable=0;strokeColor=inherit;overflow=hidden;fillColor=none;top=0;left=0;bottom=0;right=0;pointerEvents=1;fontSize=11;strokeWidth=1;" vertex="1" parent="2jLmIpTXg5ol4Nc5_51V-138">
          <mxGeometry x="170" width="80" height="50" as="geometry">
            <mxRectangle width="80" height="50" as="alternateBounds" />
          </mxGeometry>
        </mxCell>
        <mxCell id="2jLmIpTXg5ol4Nc5_51V-142" value="" style="shape=tableRow;horizontal=0;startSize=0;swimlaneHead=0;swimlaneBody=0;strokeColor=inherit;top=0;left=0;bottom=0;right=0;collapsible=0;dropTarget=0;fillColor=none;points=[[0,0.5],[1,0.5]];portConstraint=eastwest;fontSize=11;strokeWidth=1;" vertex="1" parent="2jLmIpTXg5ol4Nc5_51V-129">
          <mxGeometry y="180" width="250" height="50" as="geometry" />
        </mxCell>
        <mxCell id="2jLmIpTXg5ol4Nc5_51V-143" value="window1" style="shape=partialRectangle;html=1;whiteSpace=wrap;connectable=0;strokeColor=inherit;overflow=hidden;fillColor=none;top=0;left=0;bottom=0;right=0;pointerEvents=1;fontSize=11;strokeWidth=1;" vertex="1" parent="2jLmIpTXg5ol4Nc5_51V-142">
          <mxGeometry width="100" height="50" as="geometry">
            <mxRectangle width="100" height="50" as="alternateBounds" />
          </mxGeometry>
        </mxCell>
        <mxCell id="2jLmIpTXg5ol4Nc5_51V-144" value="" style="shape=partialRectangle;html=1;whiteSpace=wrap;connectable=0;strokeColor=inherit;overflow=hidden;fillColor=none;top=0;left=0;bottom=0;right=0;pointerEvents=1;fontSize=11;strokeWidth=1;" vertex="1" parent="2jLmIpTXg5ol4Nc5_51V-142">
          <mxGeometry x="100" width="70" height="50" as="geometry">
            <mxRectangle width="70" height="50" as="alternateBounds" />
          </mxGeometry>
        </mxCell>
        <mxCell id="2jLmIpTXg5ol4Nc5_51V-145" value="BOOL" style="shape=partialRectangle;html=1;whiteSpace=wrap;connectable=0;strokeColor=inherit;overflow=hidden;fillColor=none;top=0;left=0;bottom=0;right=0;pointerEvents=1;fontSize=11;strokeWidth=1;" vertex="1" parent="2jLmIpTXg5ol4Nc5_51V-142">
          <mxGeometry x="170" width="80" height="50" as="geometry">
            <mxRectangle width="80" height="50" as="alternateBounds" />
          </mxGeometry>
        </mxCell>
        <mxCell id="2jLmIpTXg5ol4Nc5_51V-146" value="" style="shape=tableRow;horizontal=0;startSize=0;swimlaneHead=0;swimlaneBody=0;strokeColor=inherit;top=0;left=0;bottom=0;right=0;collapsible=0;dropTarget=0;fillColor=none;points=[[0,0.5],[1,0.5]];portConstraint=eastwest;fontSize=11;strokeWidth=1;" vertex="1" parent="2jLmIpTXg5ol4Nc5_51V-129">
          <mxGeometry y="230" width="250" height="50" as="geometry" />
        </mxCell>
        <mxCell id="2jLmIpTXg5ol4Nc5_51V-147" value="window2" style="shape=partialRectangle;html=1;whiteSpace=wrap;connectable=0;strokeColor=inherit;overflow=hidden;fillColor=none;top=0;left=0;bottom=0;right=0;pointerEvents=1;fontSize=11;strokeWidth=1;" vertex="1" parent="2jLmIpTXg5ol4Nc5_51V-146">
          <mxGeometry width="100" height="50" as="geometry">
            <mxRectangle width="100" height="50" as="alternateBounds" />
          </mxGeometry>
        </mxCell>
        <mxCell id="2jLmIpTXg5ol4Nc5_51V-148" value="" style="shape=partialRectangle;html=1;whiteSpace=wrap;connectable=0;strokeColor=inherit;overflow=hidden;fillColor=none;top=0;left=0;bottom=0;right=0;pointerEvents=1;fontSize=11;strokeWidth=1;" vertex="1" parent="2jLmIpTXg5ol4Nc5_51V-146">
          <mxGeometry x="100" width="70" height="50" as="geometry">
            <mxRectangle width="70" height="50" as="alternateBounds" />
          </mxGeometry>
        </mxCell>
        <mxCell id="2jLmIpTXg5ol4Nc5_51V-149" value="BOOL" style="shape=partialRectangle;html=1;whiteSpace=wrap;connectable=0;strokeColor=inherit;overflow=hidden;fillColor=none;top=0;left=0;bottom=0;right=0;pointerEvents=1;fontSize=11;strokeWidth=1;" vertex="1" parent="2jLmIpTXg5ol4Nc5_51V-146">
          <mxGeometry x="170" width="80" height="50" as="geometry">
            <mxRectangle width="80" height="50" as="alternateBounds" />
          </mxGeometry>
        </mxCell>
        <mxCell id="2jLmIpTXg5ol4Nc5_51V-150" value="" style="shape=tableRow;horizontal=0;startSize=0;swimlaneHead=0;swimlaneBody=0;strokeColor=inherit;top=0;left=0;bottom=0;right=0;collapsible=0;dropTarget=0;fillColor=none;points=[[0,0.5],[1,0.5]];portConstraint=eastwest;fontSize=11;strokeWidth=1;" vertex="1" parent="2jLmIpTXg5ol4Nc5_51V-129">
          <mxGeometry y="280" width="250" height="50" as="geometry" />
        </mxCell>
        <mxCell id="2jLmIpTXg5ol4Nc5_51V-151" value="water_supply" style="shape=partialRectangle;html=1;whiteSpace=wrap;connectable=0;strokeColor=inherit;overflow=hidden;fillColor=none;top=0;left=0;bottom=0;right=0;pointerEvents=1;fontSize=11;strokeWidth=1;" vertex="1" parent="2jLmIpTXg5ol4Nc5_51V-150">
          <mxGeometry width="100" height="50" as="geometry">
            <mxRectangle width="100" height="50" as="alternateBounds" />
          </mxGeometry>
        </mxCell>
        <mxCell id="2jLmIpTXg5ol4Nc5_51V-152" value="" style="shape=partialRectangle;html=1;whiteSpace=wrap;connectable=0;strokeColor=inherit;overflow=hidden;fillColor=none;top=0;left=0;bottom=0;right=0;pointerEvents=1;fontSize=11;strokeWidth=1;" vertex="1" parent="2jLmIpTXg5ol4Nc5_51V-150">
          <mxGeometry x="100" width="70" height="50" as="geometry">
            <mxRectangle width="70" height="50" as="alternateBounds" />
          </mxGeometry>
        </mxCell>
        <mxCell id="2jLmIpTXg5ol4Nc5_51V-153" value="BOOL" style="shape=partialRectangle;html=1;whiteSpace=wrap;connectable=0;strokeColor=inherit;overflow=hidden;fillColor=none;top=0;left=0;bottom=0;right=0;pointerEvents=1;fontSize=11;strokeWidth=1;" vertex="1" parent="2jLmIpTXg5ol4Nc5_51V-150">
          <mxGeometry x="170" width="80" height="50" as="geometry">
            <mxRectangle width="80" height="50" as="alternateBounds" />
          </mxGeometry>
        </mxCell>
        <mxCell id="2jLmIpTXg5ol4Nc5_51V-154" value="" style="shape=tableRow;horizontal=0;startSize=0;swimlaneHead=0;swimlaneBody=0;strokeColor=inherit;top=0;left=0;bottom=0;right=0;collapsible=0;dropTarget=0;fillColor=none;points=[[0,0.5],[1,0.5]];portConstraint=eastwest;fontSize=11;strokeWidth=1;" vertex="1" parent="2jLmIpTXg5ol4Nc5_51V-129">
          <mxGeometry y="330" width="250" height="50" as="geometry" />
        </mxCell>
        <mxCell id="2jLmIpTXg5ol4Nc5_51V-155" value="lights" style="shape=partialRectangle;html=1;whiteSpace=wrap;connectable=0;strokeColor=inherit;overflow=hidden;fillColor=none;top=0;left=0;bottom=0;right=0;pointerEvents=1;fontSize=11;strokeWidth=1;" vertex="1" parent="2jLmIpTXg5ol4Nc5_51V-154">
          <mxGeometry width="100" height="50" as="geometry">
            <mxRectangle width="100" height="50" as="alternateBounds" />
          </mxGeometry>
        </mxCell>
        <mxCell id="2jLmIpTXg5ol4Nc5_51V-156" value="" style="shape=partialRectangle;html=1;whiteSpace=wrap;connectable=0;strokeColor=inherit;overflow=hidden;fillColor=none;top=0;left=0;bottom=0;right=0;pointerEvents=1;fontSize=11;strokeWidth=1;" vertex="1" parent="2jLmIpTXg5ol4Nc5_51V-154">
          <mxGeometry x="100" width="70" height="50" as="geometry">
            <mxRectangle width="70" height="50" as="alternateBounds" />
          </mxGeometry>
        </mxCell>
        <mxCell id="2jLmIpTXg5ol4Nc5_51V-157" value="BOOL" style="shape=partialRectangle;html=1;whiteSpace=wrap;connectable=0;strokeColor=inherit;overflow=hidden;fillColor=none;top=0;left=0;bottom=0;right=0;pointerEvents=1;fontSize=11;strokeWidth=1;" vertex="1" parent="2jLmIpTXg5ol4Nc5_51V-154">
          <mxGeometry x="170" width="80" height="50" as="geometry">
            <mxRectangle width="80" height="50" as="alternateBounds" />
          </mxGeometry>
        </mxCell>
        <mxCell id="2jLmIpTXg5ol4Nc5_51V-170" style="edgeStyle=orthogonalEdgeStyle;rounded=0;orthogonalLoop=1;jettySize=auto;html=1;exitX=0;exitY=0.5;exitDx=0;exitDy=0;entryX=0;entryY=0.5;entryDx=0;entryDy=0;" edge="1" parent="1" source="SkcSY4S7GJKtiJHQgHpd-106" target="2jLmIpTXg5ol4Nc5_51V-134">
          <mxGeometry relative="1" as="geometry">
            <Array as="points">
              <mxPoint x="770" y="83" />
              <mxPoint x="750" y="83" />
              <mxPoint x="750" y="625" />
            </Array>
          </mxGeometry>
        </mxCell>
        <mxCell id="2jLmIpTXg5ol4Nc5_51V-171" value="Report" style="shape=table;startSize=30;container=1;collapsible=0;childLayout=tableLayout;strokeColor=default;fontSize=11;strokeWidth=1;" vertex="1" parent="1">
          <mxGeometry x="450" y="340" width="250" height="330" as="geometry" />
        </mxCell>
        <mxCell id="2jLmIpTXg5ol4Nc5_51V-172" value="" style="shape=tableRow;horizontal=0;startSize=0;swimlaneHead=0;swimlaneBody=0;strokeColor=inherit;top=0;left=0;bottom=0;right=0;collapsible=0;dropTarget=0;fillColor=none;points=[[0,0.5],[1,0.5]];portConstraint=eastwest;fontSize=11;strokeWidth=1;" vertex="1" parent="2jLmIpTXg5ol4Nc5_51V-171">
          <mxGeometry y="30" width="250" height="50" as="geometry" />
        </mxCell>
        <mxCell id="2jLmIpTXg5ol4Nc5_51V-173" value="&lt;span style=&quot;text-wrap: nowrap;&quot;&gt;Report_id&lt;/span&gt;" style="shape=partialRectangle;html=1;whiteSpace=wrap;connectable=0;strokeColor=inherit;overflow=hidden;fillColor=none;top=0;left=0;bottom=0;right=0;pointerEvents=1;fontSize=11;strokeWidth=1;" vertex="1" parent="2jLmIpTXg5ol4Nc5_51V-172">
          <mxGeometry width="100" height="50" as="geometry">
            <mxRectangle width="100" height="50" as="alternateBounds" />
          </mxGeometry>
        </mxCell>
        <mxCell id="2jLmIpTXg5ol4Nc5_51V-174" value="Pk" style="shape=partialRectangle;html=1;whiteSpace=wrap;connectable=0;strokeColor=inherit;overflow=hidden;fillColor=none;top=0;left=0;bottom=0;right=0;pointerEvents=1;fontSize=11;strokeWidth=1;" vertex="1" parent="2jLmIpTXg5ol4Nc5_51V-172">
          <mxGeometry x="100" width="70" height="50" as="geometry">
            <mxRectangle width="70" height="50" as="alternateBounds" />
          </mxGeometry>
        </mxCell>
        <mxCell id="2jLmIpTXg5ol4Nc5_51V-175" value="INT" style="shape=partialRectangle;html=1;whiteSpace=wrap;connectable=0;strokeColor=inherit;overflow=hidden;fillColor=none;top=0;left=0;bottom=0;right=0;pointerEvents=1;fontSize=11;strokeWidth=1;" vertex="1" parent="2jLmIpTXg5ol4Nc5_51V-172">
          <mxGeometry x="170" width="80" height="50" as="geometry">
            <mxRectangle width="80" height="50" as="alternateBounds" />
          </mxGeometry>
        </mxCell>
        <mxCell id="2jLmIpTXg5ol4Nc5_51V-176" value="" style="shape=tableRow;horizontal=0;startSize=0;swimlaneHead=0;swimlaneBody=0;strokeColor=inherit;top=0;left=0;bottom=0;right=0;collapsible=0;dropTarget=0;fillColor=none;points=[[0,0.5],[1,0.5]];portConstraint=eastwest;fontSize=11;strokeWidth=1;" vertex="1" parent="2jLmIpTXg5ol4Nc5_51V-171">
          <mxGeometry y="80" width="250" height="50" as="geometry" />
        </mxCell>
        <mxCell id="2jLmIpTXg5ol4Nc5_51V-177" value="greenhouse" style="shape=partialRectangle;html=1;whiteSpace=wrap;connectable=0;strokeColor=inherit;overflow=hidden;fillColor=none;top=0;left=0;bottom=0;right=0;pointerEvents=1;fontSize=11;strokeWidth=1;" vertex="1" parent="2jLmIpTXg5ol4Nc5_51V-176">
          <mxGeometry width="100" height="50" as="geometry">
            <mxRectangle width="100" height="50" as="alternateBounds" />
          </mxGeometry>
        </mxCell>
        <mxCell id="2jLmIpTXg5ol4Nc5_51V-178" value="Fk" style="shape=partialRectangle;html=1;whiteSpace=wrap;connectable=0;strokeColor=inherit;overflow=hidden;fillColor=none;top=0;left=0;bottom=0;right=0;pointerEvents=1;fontSize=11;strokeWidth=1;" vertex="1" parent="2jLmIpTXg5ol4Nc5_51V-176">
          <mxGeometry x="100" width="70" height="50" as="geometry">
            <mxRectangle width="70" height="50" as="alternateBounds" />
          </mxGeometry>
        </mxCell>
        <mxCell id="2jLmIpTXg5ol4Nc5_51V-179" value="INT" style="shape=partialRectangle;html=1;whiteSpace=wrap;connectable=0;strokeColor=inherit;overflow=hidden;fillColor=none;top=0;left=0;bottom=0;right=0;pointerEvents=1;fontSize=11;strokeWidth=1;" vertex="1" parent="2jLmIpTXg5ol4Nc5_51V-176">
          <mxGeometry x="170" width="80" height="50" as="geometry">
            <mxRectangle width="80" height="50" as="alternateBounds" />
          </mxGeometry>
        </mxCell>
        <mxCell id="2jLmIpTXg5ol4Nc5_51V-180" value="" style="shape=tableRow;horizontal=0;startSize=0;swimlaneHead=0;swimlaneBody=0;strokeColor=inherit;top=0;left=0;bottom=0;right=0;collapsible=0;dropTarget=0;fillColor=none;points=[[0,0.5],[1,0.5]];portConstraint=eastwest;fontSize=11;strokeWidth=1;" vertex="1" parent="2jLmIpTXg5ol4Nc5_51V-171">
          <mxGeometry y="130" width="250" height="50" as="geometry" />
        </mxCell>
        <mxCell id="2jLmIpTXg5ol4Nc5_51V-181" value="datetime" style="shape=partialRectangle;html=1;whiteSpace=wrap;connectable=0;strokeColor=inherit;overflow=hidden;fillColor=none;top=0;left=0;bottom=0;right=0;pointerEvents=1;fontSize=11;strokeWidth=1;" vertex="1" parent="2jLmIpTXg5ol4Nc5_51V-180">
          <mxGeometry width="100" height="50" as="geometry">
            <mxRectangle width="100" height="50" as="alternateBounds" />
          </mxGeometry>
        </mxCell>
        <mxCell id="2jLmIpTXg5ol4Nc5_51V-182" value="" style="shape=partialRectangle;html=1;whiteSpace=wrap;connectable=0;strokeColor=inherit;overflow=hidden;fillColor=none;top=0;left=0;bottom=0;right=0;pointerEvents=1;fontSize=11;strokeWidth=1;" vertex="1" parent="2jLmIpTXg5ol4Nc5_51V-180">
          <mxGeometry x="100" width="70" height="50" as="geometry">
            <mxRectangle width="70" height="50" as="alternateBounds" />
          </mxGeometry>
        </mxCell>
        <mxCell id="2jLmIpTXg5ol4Nc5_51V-183" value="DATETIME" style="shape=partialRectangle;html=1;whiteSpace=wrap;connectable=0;strokeColor=inherit;overflow=hidden;fillColor=none;top=0;left=0;bottom=0;right=0;pointerEvents=1;fontSize=11;strokeWidth=1;" vertex="1" parent="2jLmIpTXg5ol4Nc5_51V-180">
          <mxGeometry x="170" width="80" height="50" as="geometry">
            <mxRectangle width="80" height="50" as="alternateBounds" />
          </mxGeometry>
        </mxCell>
        <mxCell id="2jLmIpTXg5ol4Nc5_51V-184" value="" style="shape=tableRow;horizontal=0;startSize=0;swimlaneHead=0;swimlaneBody=0;strokeColor=inherit;top=0;left=0;bottom=0;right=0;collapsible=0;dropTarget=0;fillColor=none;points=[[0,0.5],[1,0.5]];portConstraint=eastwest;fontSize=11;strokeWidth=1;" vertex="1" parent="2jLmIpTXg5ol4Nc5_51V-171">
          <mxGeometry y="180" width="250" height="50" as="geometry" />
        </mxCell>
        <mxCell id="2jLmIpTXg5ol4Nc5_51V-185" value="type_report" style="shape=partialRectangle;html=1;whiteSpace=wrap;connectable=0;strokeColor=inherit;overflow=hidden;fillColor=none;top=0;left=0;bottom=0;right=0;pointerEvents=1;fontSize=11;strokeWidth=1;" vertex="1" parent="2jLmIpTXg5ol4Nc5_51V-184">
          <mxGeometry width="100" height="50" as="geometry">
            <mxRectangle width="100" height="50" as="alternateBounds" />
          </mxGeometry>
        </mxCell>
        <mxCell id="2jLmIpTXg5ol4Nc5_51V-186" value="" style="shape=partialRectangle;html=1;whiteSpace=wrap;connectable=0;strokeColor=inherit;overflow=hidden;fillColor=none;top=0;left=0;bottom=0;right=0;pointerEvents=1;fontSize=11;strokeWidth=1;" vertex="1" parent="2jLmIpTXg5ol4Nc5_51V-184">
          <mxGeometry x="100" width="70" height="50" as="geometry">
            <mxRectangle width="70" height="50" as="alternateBounds" />
          </mxGeometry>
        </mxCell>
        <mxCell id="2jLmIpTXg5ol4Nc5_51V-187" value="CHAR(50)" style="shape=partialRectangle;html=1;whiteSpace=wrap;connectable=0;strokeColor=inherit;overflow=hidden;fillColor=none;top=0;left=0;bottom=0;right=0;pointerEvents=1;fontSize=11;strokeWidth=1;" vertex="1" parent="2jLmIpTXg5ol4Nc5_51V-184">
          <mxGeometry x="170" width="80" height="50" as="geometry">
            <mxRectangle width="80" height="50" as="alternateBounds" />
          </mxGeometry>
        </mxCell>
        <mxCell id="2jLmIpTXg5ol4Nc5_51V-188" value="" style="shape=tableRow;horizontal=0;startSize=0;swimlaneHead=0;swimlaneBody=0;strokeColor=inherit;top=0;left=0;bottom=0;right=0;collapsible=0;dropTarget=0;fillColor=none;points=[[0,0.5],[1,0.5]];portConstraint=eastwest;fontSize=11;strokeWidth=1;" vertex="1" parent="2jLmIpTXg5ol4Nc5_51V-171">
          <mxGeometry y="230" width="250" height="50" as="geometry" />
        </mxCell>
        <mxCell id="2jLmIpTXg5ol4Nc5_51V-189" value="descroption" style="shape=partialRectangle;html=1;whiteSpace=wrap;connectable=0;strokeColor=inherit;overflow=hidden;fillColor=none;top=0;left=0;bottom=0;right=0;pointerEvents=1;fontSize=11;strokeWidth=1;" vertex="1" parent="2jLmIpTXg5ol4Nc5_51V-188">
          <mxGeometry width="100" height="50" as="geometry">
            <mxRectangle width="100" height="50" as="alternateBounds" />
          </mxGeometry>
        </mxCell>
        <mxCell id="2jLmIpTXg5ol4Nc5_51V-190" value="" style="shape=partialRectangle;html=1;whiteSpace=wrap;connectable=0;strokeColor=inherit;overflow=hidden;fillColor=none;top=0;left=0;bottom=0;right=0;pointerEvents=1;fontSize=11;strokeWidth=1;" vertex="1" parent="2jLmIpTXg5ol4Nc5_51V-188">
          <mxGeometry x="100" width="70" height="50" as="geometry">
            <mxRectangle width="70" height="50" as="alternateBounds" />
          </mxGeometry>
        </mxCell>
        <mxCell id="2jLmIpTXg5ol4Nc5_51V-191" value="TEXT" style="shape=partialRectangle;html=1;whiteSpace=wrap;connectable=0;strokeColor=inherit;overflow=hidden;fillColor=none;top=0;left=0;bottom=0;right=0;pointerEvents=1;fontSize=11;strokeWidth=1;" vertex="1" parent="2jLmIpTXg5ol4Nc5_51V-188">
          <mxGeometry x="170" width="80" height="50" as="geometry">
            <mxRectangle width="80" height="50" as="alternateBounds" />
          </mxGeometry>
        </mxCell>
        <mxCell id="2jLmIpTXg5ol4Nc5_51V-192" value="" style="shape=tableRow;horizontal=0;startSize=0;swimlaneHead=0;swimlaneBody=0;strokeColor=inherit;top=0;left=0;bottom=0;right=0;collapsible=0;dropTarget=0;fillColor=none;points=[[0,0.5],[1,0.5]];portConstraint=eastwest;fontSize=11;strokeWidth=1;" vertex="1" parent="2jLmIpTXg5ol4Nc5_51V-171">
          <mxGeometry y="280" width="250" height="50" as="geometry" />
        </mxCell>
        <mxCell id="2jLmIpTXg5ol4Nc5_51V-193" value="rate_plants" style="shape=partialRectangle;html=1;whiteSpace=wrap;connectable=0;strokeColor=inherit;overflow=hidden;fillColor=none;top=0;left=0;bottom=0;right=0;pointerEvents=1;fontSize=11;strokeWidth=1;" vertex="1" parent="2jLmIpTXg5ol4Nc5_51V-192">
          <mxGeometry width="100" height="50" as="geometry">
            <mxRectangle width="100" height="50" as="alternateBounds" />
          </mxGeometry>
        </mxCell>
        <mxCell id="2jLmIpTXg5ol4Nc5_51V-194" value="" style="shape=partialRectangle;html=1;whiteSpace=wrap;connectable=0;strokeColor=inherit;overflow=hidden;fillColor=none;top=0;left=0;bottom=0;right=0;pointerEvents=1;fontSize=11;strokeWidth=1;" vertex="1" parent="2jLmIpTXg5ol4Nc5_51V-192">
          <mxGeometry x="100" width="70" height="50" as="geometry">
            <mxRectangle width="70" height="50" as="alternateBounds" />
          </mxGeometry>
        </mxCell>
        <mxCell id="2jLmIpTXg5ol4Nc5_51V-195" value="INT" style="shape=partialRectangle;html=1;whiteSpace=wrap;connectable=0;strokeColor=inherit;overflow=hidden;fillColor=none;top=0;left=0;bottom=0;right=0;pointerEvents=1;fontSize=11;strokeWidth=1;" vertex="1" parent="2jLmIpTXg5ol4Nc5_51V-192">
          <mxGeometry x="170" width="80" height="50" as="geometry">
            <mxRectangle width="80" height="50" as="alternateBounds" />
          </mxGeometry>
        </mxCell>
        <mxCell id="2jLmIpTXg5ol4Nc5_51V-200" style="edgeStyle=orthogonalEdgeStyle;rounded=0;orthogonalLoop=1;jettySize=auto;html=1;exitX=0;exitY=0.5;exitDx=0;exitDy=0;entryX=1;entryY=0.5;entryDx=0;entryDy=0;" edge="1" parent="1" source="SkcSY4S7GJKtiJHQgHpd-106" target="2jLmIpTXg5ol4Nc5_51V-176">
          <mxGeometry relative="1" as="geometry">
            <Array as="points">
              <mxPoint x="722" y="75" />
              <mxPoint x="722" y="445" />
            </Array>
          </mxGeometry>
        </mxCell>
      </root>
    </mxGraphModel>
  </diagram>
</mxfile>
